HIERARCHY
ROOT Hips
{
  OFFSET 13.6774 106.653 -34.4427
  CHANNELS 6 Xposition Yposition Zposition Zrotation Xrotation Yrotation
  JOINT ToSpine
  {
    OFFSET -2.69724 7.43032 -0.144315
    CHANNELS 3 Zrotation Xrotation Yrotation
    JOINT Spine
    {
      OFFSET -0.0310711 10.7595 1.96963
      CHANNELS 3 Zrotation Xrotation Yrotation
      JOINT Spine1
      {
        OFFSET 19.9056 3.91189 0.764692
        CHANNELS 3 Zrotation Xrotation Yrotation
        JOINT Neck
        {
          OFFSET 25.9749 7.03908 -0.130764
          CHANNELS 3 Zrotation Xrotation Yrotation
          JOINT Head
          {
            OFFSET 9.52751 0.295786 -0.907742
            CHANNELS 3 Zrotation Xrotation Yrotation
            End Site
            {
              OFFSET 16.4037 0.713936 2.7358
            }
          }
        }
        JOINT LeftShoulder
        {
          OFFSET 17.7449 4.33886 11.7777
          CHANNELS 3 Zrotation Xrotation Yrotation
          JOINT LeftArm
          {
            OFFSET 0.911315 1.27913 9.80584
            CHANNELS 3 Zrotation Xrotation Yrotation
            JOINT LeftForeArm
            {
              OFFSET 28.6126 1.18197 -3.53199
              CHANNELS 3 Zrotation Xrotation Yrotation
              JOINT LeftHand
              {
                OFFSET 27.5088 0.0218783 0.327423
                CHANNELS 3 Zrotation Xrotation Yrotation
                End Site
                {
                  OFFSET 18.6038 -0.000155887 0.382096
                }
              }
            }
          }
        }
        JOINT RightShoulder
        {
          OFFSET 17.1009 2.89543 -12.2328
          CHANNELS 3 Zrotation Xrotation Yrotation
          JOINT RightArm
          {
            OFFSET 1.4228 0.178766 -10.211
            CHANNELS 3 Zrotation Xrotation Yrotation
            JOINT RightForeArm
            {
              OFFSET 28.733 1.87905 2.64907
              CHANNELS 3 Zrotation Xrotation Yrotation
              JOINT RightHand
              {
                OFFSET 27.4588 0.290562 -0.101845
                CHANNELS 3 Zrotation Xrotation Yrotation
                End Site
                {
                  OFFSET 17.8396 -0.255518 -0.000602873
                }
              }
            }
          }
        }
      }
    }
  }
  JOINT LeftUpLeg
  {
    OFFSET -5.61296 -2.22332 -10.2353
    CHANNELS 3 Zrotation Xrotation Yrotation
    JOINT LeftLeg
    {
      OFFSET 2.56703 -44.7417 -7.93097
      CHANNELS 3 Zrotation Xrotation Yrotation
      JOINT LeftFoot
      {
        OFFSET 3.16933 -46.5642 -3.96578
        CHANNELS 3 Zrotation Xrotation Yrotation
        JOINT LeftToeBase
        {
          OFFSET 0.346054 -6.02161 12.8035
          CHANNELS 3 Zrotation Xrotation Yrotation
          End Site
          {
            OFFSET 0.134235 -1.35082 5.13018
          }
        }
      }
    }
  }
  JOINT RightUpLeg
  {
    OFFSET -5.7928 -1.72406 10.6446
    CHANNELS 3 Zrotation Xrotation Yrotation
    JOINT RightLeg
    {
      OFFSET -2.57161 -44.7178 -7.85259
      CHANNELS 3 Zrotation Xrotation Yrotation
      JOINT RightFoot
      {
        OFFSET -3.10148 -46.5936 -4.03391
        CHANNELS 3 Zrotation Xrotation Yrotation
        JOINT RightToeBase
        {
          OFFSET -0.0828122 -6.13587 12.8035
          CHANNELS 3 Zrotation Xrotation Yrotation
          End Site
          {
            OFFSET -0.131328 -1.35082 5.13018
          }
        }
      }
    }
  }
}
MOTION
Frames: 15
Frame Time: 0.03333333333333333
0.0000 93.1000 0.0000 -74.2531 -23.2044 -166.4235 -70.8619 -0.6043 88.2180 133.0029 78.1813 -40.0346 -8.7450 31.6855 1.7310 -140.7816 13.4501 -169.3089 -159.0062 49.6175 -169.1330 -0.2619 -14.1673 -21.3717 -122.7210 11.0719 -84.4279 12.3798 3.1150 -72.7951 -0.3563 0.4414 0.3255 -2.7466 12.3913 26.2508 -64.0563 -14.2117 162.0264 6.0354 0.4543 91.4276 -0.2182 -0.6475 -0.0651 -39.8831 -5.0178 62.2133 -9.7006 62.4563 -30.9900 -3.4590 -20.6276 -1.8093 3.9524 -10.5423 5.8229 -50.7936 -12.5805 91.0236 2.8577 51.3174 2.1347 -12.1583 15.0103 -0.3703 2.3903 -27.0344 -10.9122 
0.0000 93.1000 0.0000 -72.9581 -12.3171 -170.9936 -70.9497 -0.8714 88.0494 135.0860 79.4481 -42.3448 -10.4787 32.5538 1.8904 -141.9501 10.9604 -162.9007 -158.7198 46.9858 -169.3145 -0.2373 -13.5188 -22.1798 -123.6612 2.6949 -84.1303 10.2881 3.7422 -67.8147 0.1085 0.3836 0.0462 -2.8188 12.6594 26.6800 -62.2228 -10.6985 163.0354 5.9757 0.0506 92.0513 -0.1355 -0.6317 -0.2414 -38.9535 -8.6294 60.2252 -10.6377 65.2002 -23.9295 -1.1076 -25.6892 -2.5647 5.1767 -12.9571 8.7087 -48.6876 -15.7599 95.0162 2.0111 46.0753 1.0078 -12.3004 6.5619 0.3594 3.4637 -32.7932 -0.7079 
0.0000 93.1000 0.0000 -71.1085 -0.9338 -174.3420 -70.9005 -0.6532 87.9546 139.0024 78.7262 -48.3462 -11.8892 32.9920 2.2132 -142.5200 6.7707 -158.8079 -157.6020 42.9127 -170.3356 -0.0800 -13.0466 -24.7408 -129.0132 -4.8211 -84.1012 9.6379 3.6855 -65.0442 0.1975 0.2202 -0.0688 -2.8963 12.1668 31.9862 -60.2313 -5.2428 161.9786 6.3079 0.3175 95.1995 -0.1592 -0.5237 -0.3662 -35.2439 -8.6862 64.8652 -12.3800 67.1224 -13.5888 1.3386 -26.9194 -3.2692 4.9014 -15.6558 13.8577 -44.9350 -15.2857 99.8882 2.0011 40.3678 7.9164 -10.8867 4.1128 0.9080 2.8351 -35.2801 -5.6908 
0.0000 93.1000 0.0000 -68.7346 6.1704 -176.1908 -70.9567 0.1526 88.0520 137.9897 78.1860 -47.3637 -13.1964 33.2011 2.3937 -146.0534 3.4457 -158.3731 -156.1116 40.0637 -170.4013 0.2718 -13.2905 -26.0073 -138.2472 -8.9396 -83.0773 9.0949 4.3675 -63.6362 0.0454 0.2161 -0.1103 -2.3761 12.0294 34.5728 -59.2697 -4.1647 158.2833 8.1184 0.5845 99.2042 0.1236 -0.4429 0.5503 -32.3089 -6.7197 66.3448 -12.3695 69.1417 -8.8569 1.4851 -27.6328 -3.8151 4.0907 -13.1290 16.4495 -41.8406 -14.9253 97.2529 0.8062 35.0338 13.8338 -12.3315 3.7368 2.1156 2.3478 -35.5187 -11.9007 
0.0000 93.1000 0.0000 -65.8371 8.1319 -176.4419 -70.8555 0.5638 88.1598 131.1240 76.9111 -43.2217 -13.7262 30.7249 3.2950 -148.9231 1.0151 -157.1854 -154.6771 37.8603 -170.7745 0.3686 -13.0818 -25.8871 -147.3672 -7.1940 -81.9733 8.4240 3.8154 -61.1419 0.2313 0.4035 0.0741 -1.9915 11.3571 35.6203 -58.4120 -6.6885 153.8282 7.8992 1.8597 101.6912 0.3882 -0.5930 0.8468 -27.2190 -5.1020 66.2282 -13.5224 70.0234 -8.0936 2.1562 -26.3193 -4.3056 4.6804 -12.9900 16.9931 -39.9150 -15.9816 88.0094 -0.9065 29.4358 20.2843 -14.2190 5.4596 3.0134 2.6360 -34.4225 -12.4151 
0.0000 93.1000 0.0000 -63.8520 7.0046 -176.4304 -70.8920 1.4149 88.2291 121.0364 74.6318 -37.5647 -12.8765 27.2283 4.6268 -151.8185 -0.1220 -155.9699 -153.9920 36.8683 -170.4969 0.9344 -12.9748 -25.9943 -153.1061 -6.0808 -83.7986 8.8774 5.1863 -59.2629 0.4559 -0.0758 -0.2732 -1.7033 9.8294 37.0264 -57.3113 -8.1789 147.9548 8.9325 1.8028 103.9984 0.7575 0.0321 1.1006 -24.0666 -2.2851 67.9944 -9.9796 66.1912 -10.7226 2.4781 -22.8886 -4.2425 4.6061 -14.2919 18.6088 -40.5019 -15.4406 81.9734 -2.4761 23.3344 25.4954 -11.5774 8.3217 3.1313 3.1048 -33.5771 -10.2067 
0.0000 93.1000 0.0000 -63.2004 5.1851 -174.9377 -70.9838 0.7677 87.9945 119.3520 71.9565 -38.2525 -13.3627 24.0650 5.1160 -152.7135 -1.2997 -156.9715 -151.7719 36.2207 -168.8084 0.4851 -12.9285 -25.1773 -153.9406 -4.9764 -81.7631 9.7658 6.0660 -58.3213 0.1900 -0.3646 -0.0848 -2.3850 9.0007 38.2982 -55.4541 -9.8782 140.3466 9.1101 2.5791 105.7724 0.3756 0.3269 0.4820 -22.2198 3.4717 72.4718 -7.7153 62.5201 -7.7795 2.5557 -21.7608 -3.3415 4.3297 -14.4167 22.2472 -41.8730 -14.8772 81.0215 -0.4708 19.4362 22.5757 -9.0722 10.3238 1.6166 3.2800 -31.3412 -8.2650 
0.0000 93.1000 0.0000 -61.4593 4.1512 -173.9391 -70.8655 0.3512 88.2653 119.1419 69.9273 -38.1219 -13.0555 21.8651 4.8668 -152.0642 -2.0612 -155.7933 -150.4437 35.8181 -167.4789 0.2747 -12.9821 -25.5310 -152.9844 -4.1107 -79.8313 9.5550 5.5522 -57.9574 -0.1603 -0.3116 -0.0484 -2.5033 8.5455 38.3006 -54.1149 -12.9616 132.8063 8.9801 3.2375 106.8409 0.4002 0.2548 0.3032 -20.2433 12.3386 79.1971 -6.0243 59.0865 0.2086 2.7401 -22.9516 -3.2084 1.8987 -10.4691 21.5770 -43.7638 -13.6792 80.6137 0.7491 14.9611 17.1336 -5.8129 13.4267 0.3043 3.0504 -29.0255 -5.4230 
0.0000 93.1000 0.0000 -62.0741 3.0667 -172.9317 -70.9448 0.7964 88.0296 115.3582 69.6477 -35.3339 -11.6305 21.0175 4.3995 -151.1485 -2.0593 -156.9078 -150.4309 34.6006 -167.7830 0.6116 -13.1895 -25.8783 -151.8222 -3.2791 -78.7324 9.2326 4.9176 -59.0844 0.1681 -0.6242 -0.2191 -2.2727 8.2704 38.5961 -53.3254 -15.9911 127.9587 9.7395 2.9769 107.9632 0.3162 0.6226 -0.0708 -20.2389 21.0226 91.0852 -3.6302 56.4095 4.7960 1.9090 -22.5952 -2.9359 -0.7725 -6.1252 20.5238 -45.8539 -13.0707 79.9672 0.6640 14.0850 17.3296 -2.0422 14.3668 -0.1033 3.6481 -27.3865 -4.9418 
0.0000 93.1000 0.0000 -61.9697 3.1513 -173.1729 -70.8505 0.6528 88.0778 112.0982 69.4737 -31.0666 -10.2677 20.5863 4.0230 -149.1371 -2.3039 -158.4178 -149.6088 34.6943 -168.2308 0.4419 -13.0129 -26.6716 -152.9604 -2.8086 -76.4410 10.0588 4.4421 -61.9689 -0.0112 -0.4518 -0.2582 -2.1587 8.0682 36.9633 -51.4576 -18.7363 125.8372 10.5775 3.8103 107.9161 -0.0965 0.5175 -0.0673 -23.0438 28.8195 102.1906 -3.0638 53.9756 6.1581 -0.0423 -20.7486 -2.6586 -3.1490 -2.4690 18.6851 -46.9845 -14.3817 78.9740 1.0709 15.6341 17.1635 -1.6140 14.3501 -0.1562 2.8123 -28.9226 -2.1940 
0.0000 93.1000 0.0000 -63.1638 2.2864 -173.7815 -70.6707 0.5029 87.9429 109.2690 69.1237 -28.8888 -8.9228 20.4826 2.9474 -149.1716 -2.2149 -158.3916 -150.4864 34.8750 -168.7088 0.2666 -13.2579 -28.3154 -153.1416 -3.2569 -73.7871 10.2062 3.6917 -65.8589 -0.1785 -0.1652 0.0479 -1.9873 7.9257 34.6252 -48.2567 -21.9451 127.3336 11.0028 3.9754 108.1635 -0.0970 0.3132 0.2859 -27.0619 34.1142 112.0603 -3.0734 52.0625 3.1546 -2.2754 -14.9022 -1.9926 -2.9684 -2.1040 16.0762 -47.9314 -16.9221 78.0947 1.7371 15.5494 19.8457 -1.4240 14.3460 -0.4340 2.7859 -30.7813 -3.0338 
0.0000 93.1000 0.0000 -62.9877 1.3894 -173.8089 -70.5790 0.7316 87.9124 108.2593 69.9888 -25.5733 -7.7280 21.2540 2.3846 -148.1421 -1.7466 -156.7173 -150.3176 34.8092 -168.6099 0.5796 -13.2557 -29.9861 -154.0231 -1.9077 -72.1466 9.8922 3.1390 -71.1476 0.3063 -0.6398 -0.3616 -2.1798 8.0951 33.8430 -46.4467 -21.7652 129.0342 11.1455 4.3201 108.9532 -0.2563 0.8669 -0.1162 -29.0827 36.6420 116.1766 -4.2486 53.2090 0.4555 -5.6237 -12.3669 -1.0395 -2.1723 -2.0864 10.1800 -46.5989 -18.1836 77.4140 1.9865 19.1208 22.1211 -3.9144 11.8290 -0.1847 2.9474 -33.5647 -7.0976 
0.0000 93.1000 0.0000 -64.1123 0.1594 -173.9869 -70.6828 -0.3196 87.8466 105.3431 70.6405 -21.0659 -6.4294 21.5960 1.0181 -147.0471 -0.4260 -156.5954 -149.8639 34.9758 -168.5195 -0.3650 -13.9797 -32.1112 -155.6682 -1.1286 -70.9293 10.8085 2.9989 -75.1789 0.2808 -0.0997 -0.3188 -2.8037 7.6459 35.6481 -45.3619 -21.3621 129.8491 11.5460 4.4106 110.9136 -0.1899 0.2267 -0.2580 -29.1149 36.9857 117.1039 -4.3655 54.9770 -1.9731 -6.9646 -13.3222 -1.0330 -1.4869 -2.0086 8.0878 -45.0439 -18.7234 77.7753 1.0102 25.2974 19.2491 -7.8261 8.1497 -0.1539 1.5816 -33.9962 -10.2680 
0.0000 93.1000 0.0000 -63.8976 -1.7354 -173.5895 -70.6597 0.4279 87.9539 103.3648 71.7688 -18.0156 -4.9844 21.9357 1.3148 -145.0565 0.4698 -156.0533 -148.7579 35.7573 -169.2450 -0.1130 -15.0267 -34.6241 -156.8008 1.1811 -71.0270 11.9569 2.1051 -78.2438 -0.0102 -0.1922 -0.3912 -2.4401 8.0993 36.9403 -45.3542 -21.7545 130.2271 11.9194 4.7841 111.1688 0.1462 0.3378 0.1943 -27.9213 35.6859 115.9208 -5.5772 56.3959 -1.8124 -6.2963 -13.0237 -1.7120 -0.8216 -1.9272 7.5526 -43.8766 -19.4891 79.0936 2.3261 30.1018 15.4958 -11.1190 5.3951 1.0375 1.6724 -33.0012 -13.1500 
0.0000 93.1000 0.0000 -64.9058 -3.9298 -173.5243 -70.7129 -0.0110 88.0000 102.2694 71.9601 -15.7727 -3.2150 22.4144 1.0116 -143.0680 2.1282 -156.4177 -148.7833 36.6514 -170.4493 -0.4761 -16.1532 -36.0554 -157.2826 3.3027 -71.0144 12.1094 1.9097 -79.0218 -0.1234 -0.3601 0.0951 -3.0209 8.2986 37.7967 -46.1840 -22.8048 132.1102 11.9322 4.6202 110.9791 -0.0754 0.5195 -0.3410 -27.0792 35.0185 113.3105 -5.3853 58.1717 -0.6317 -5.4165 -13.0568 -1.1741 -0.2478 -2.8605 6.9330 -44.8376 -19.9239 79.9490 1.9867 33.4347 12.1965 -12.1713 2.8004 0.5081 1.6731 -32.9416 -15.1098 
